<svg viewBox="0 0 900 600" xmlns="http://www.w3.org/2000/svg">
    <!-- Title -->
    <text x="200" y="30" font-size="16" font-weight="bold">Option 1: Direct Flatten</text>
    <text x="600" y="30" font-size="16" font-weight="bold">Option 2: Separate Processing</text>

    <!-- Input - Left -->
    <rect x="100" y="50" width="100" height="30" fill="#e6f3ff" stroke="#333"/>
    <text x="150" y="70" text-anchor="middle" font-size="12">[N, 56]</text>

    <!-- Input - Right -->
    <rect x="500" y="50" width="100" height="30" fill="#e6f3ff" stroke="#333"/>
    <text x="550" y="70" text-anchor="middle" font-size="12">[N, 56]</text>

    <!-- Split arrows -->
    <line x1="150" y1="80" x2="150" y2="100" stroke="#333" stroke-width="2"/>
    <line x1="150" y1="100" x2="100" y2="120" stroke="#333" stroke-width="2"/>
    <line x1="150" y1="100" x2="200" y2="120" stroke="#333" stroke-width="2"/>

    <line x1="550" y1="80" x2="550" y2="100" stroke="#333" stroke-width="2"/>
    <line x1="550" y1="100" x2="500" y2="120" stroke="#333" stroke-width="2"/>
    <line x1="550" y1="100" x2="600" y2="120" stroke="#333" stroke-width="2"/>

    <!-- Regular Cards - Left -->
    <rect x="50" y="120" width="100" height="30" fill="#e6f3ff" stroke="#333"/>
    <text x="100" y="140" text-anchor="middle" font-size="12">[4, 13]</text>

    <!-- Special Cards - Left -->
    <rect x="170" y="120" width="100" height="30" fill="#e6f3ff" stroke="#333"/>
    <text x="220" y="140" text-anchor="middle" font-size="12">[4]</text>

    <!-- Regular Cards - Right -->
    <rect x="450" y="120" width="100" height="30" fill="#e6f3ff" stroke="#333"/>
    <text x="500" y="140" text-anchor="middle" font-size="12">[4, 13]</text>

    <!-- Special Cards - Right -->
    <rect x="570" y="120" width="100" height="30" fill="#e6f3ff" stroke="#333"/>
    <text x="620" y="140" text-anchor="middle" font-size="12">[4]</text>

    <!-- Filters - Left -->
    <rect x="25" y="180" width="150" height="120" fill="#f0f7ff" stroke="#333"/>
    <text x="100" y="200" text-anchor="middle" font-size="12">ColorInvariantConv</text>
    <text x="100" y="220" text-anchor="middle" font-size="10">8 filter types</text>
    <text x="100" y="235" text-anchor="middle" font-size="10">4 filters each</text>
    <text x="100" y="280" text-anchor="middle" font-size="10">424 total features</text>

    <!-- Special Dense - Left -->
    <rect x="170" y="180" width="100" height="120" fill="#fff0f7" stroke="#333"/>
    <text x="220" y="230" text-anchor="middle" font-size="12">Dense 4-&gt;16</text>

    <!-- Filters - Right -->
    <rect x="425" y="180" width="150" height="120" fill="#f0f7ff" stroke="#333"/>
    <text x="500" y="200" text-anchor="middle" font-size="12">ColorInvariantConv</text>
    <text x="500" y="220" text-anchor="middle" font-size="10">8 filter types</text>
    <text x="500" y="235" text-anchor="middle" font-size="10">4 filters each</text>
    <text x="500" y="250" text-anchor="middle" font-size="10">+ Conv1d paths</text>
    <text x="500" y="280" text-anchor="middle" font-size="10">1008 features</text>

    <!-- Special Dense - Right -->
    <rect x="570" y="180" width="100" height="120" fill="#fff0f7" stroke="#333"/>
    <text x="620" y="230" text-anchor="middle" font-size="12">Dense 4-&gt;16</text>

    <!-- Combine - Left -->
    <rect x="100" y="340" width="140" height="40" fill="#f7fff0" stroke="#333"/>
    <text x="170" y="365" text-anchor="middle" font-size="12">Flatten &amp; Concat</text>

    <!-- Combine - Right -->
    <rect x="500" y="340" width="140" height="40" fill="#f7fff0" stroke="#333"/>
    <text x="570" y="365" text-anchor="middle" font-size="12">Concat Features</text>

    <!-- Dense Layers - Left -->
    <rect x="100" y="420" width="140" height="60" fill="#f7fff0" stroke="#333"/>
    <text x="170" y="445" text-anchor="middle" font-size="12">Dense Layers</text>
    <text x="170" y="460" text-anchor="middle" font-size="10">256 -&gt; 128</text>

    <!-- Dense Layers - Right -->
    <rect x="500" y="420" width="140" height="60" fill="#f7fff0" stroke="#333"/>
    <text x="570" y="445" text-anchor="middle" font-size="12">Dense Layers</text>
    <text x="570" y="460" text-anchor="middle" font-size="10">512 -&gt; 256</text>

    <!-- Output - Left -->
    <rect x="100" y="520" width="140" height="30" fill="#e6f3ff" stroke="#333"/>
    <text x="170" y="540" text-anchor="middle" font-size="12">[N, 2389]</text>

    <!-- Output - Right -->
    <rect x="500" y="520" width="140" height="30" fill="#e6f3ff" stroke="#333"/>
    <text x="570" y="540" text-anchor="middle" font-size="12">[N, 2389]</text>

    <!-- Connections -->
    <line x1="100" y1="150" x2="100" y2="180" stroke="#333" stroke-width="2"/>
    <line x1="220" y1="150" x2="220" y2="180" stroke="#333" stroke-width="2"/>
    <line x1="100" y1="300" x2="170" y2="340" stroke="#333" stroke-width="2"/>
    <line x1="220" y1="300" x2="170" y2="340" stroke="#333" stroke-width="2"/>
    <line x1="170" y1="380" x2="170" y2="420" stroke="#333" stroke-width="2"/>
    <line x1="170" y1="480" x2="170" y2="520" stroke="#333" stroke-width="2"/>

    <line x1="500" y1="150" x2="500" y2="180" stroke="#333" stroke-width="2"/>
    <line x1="620" y1="150" x2="620" y2="180" stroke="#333" stroke-width="2"/>
    <line x1="500" y1="300" x2="570" y2="340" stroke="#333" stroke-width="2"/>
    <line x1="620" y1="300" x2="570" y2="340" stroke="#333" stroke-width="2"/>
    <line x1="570" y1="380" x2="570" y2="420" stroke="#333" stroke-width="2"/>
    <line x1="570" y1="480" x2="570" y2="520" stroke="#333" stroke-width="2"/>
</svg>
